<svg width="200.0289" height="100" viewBox="0 0 200.0289 100" xmlns="http://www.w3.org/2000/svg" xmlns:xlink="http://www.w3.org/1999/xlink"><defs><linearGradient x1="68.5722" y1="100" x2="126.2629" y2="0.0769" gradientUnits="userSpaceOnUse" id="color-1"><stop offset="0.17" stop-color="#0054ad"></stop><stop offset="0.5" stop-color="#1cb5d6"></stop><stop offset="1" stop-color="#bdf562"></stop></linearGradient></defs><g fill="url(#color-1)" fill-rule="nonzero" stroke="#000000" stroke-width="0" stroke-linecap="butt" stroke-linejoin="miter" stroke-miterlimit="10" stroke-dasharray="" stroke-dashoffset="0" font-family="none" font-weight="none" font-size="none" text-anchor="none" style="mix-blend-mode: normal"><path d="M126.2629,0.0769l47.0754,-0.0769h2.6339c14.6992,0.0964 23.2985,14.9699 24.0278,30c0.3724,7.6745 -2.8885,14.6924 -7.6389,20c4.7504,5.3076 7.6389,12.3165 7.6389,20c0,15.6095 -11.7652,28.5676 -27,30l-69.7513,0l11.547,-20l59.2043,0c5.5229,0 10,-4.4772 10,-10c0,-5.5228 -4.4771,-10 -10,-10l-47.6573,0l11.547,-20l36.1103,0c5.5229,0 10,-4.4772 10,-10c0,-5.5229 -4.4771,-10 -10,-10l-36.1457,0l-46.188,80l-23.094,0z" data-paper-data="{&quot;rotation&quot;:30}"></path><polygon points="20,0 50,51.9615 80,0 100,0 100,25.4448 80,60.0858 80,40 61.547,71.9615 61.5356,71.9615 56.8945,80 43.118,80 38.477,71.9615 38.453,71.9615 20,40 20,100 0,100 0,0"></polygon></g></svg>