<svg width="250" height="150" viewBox="0 0 250 150" xmlns="http://www.w3.org/2000/svg" xmlns:xlink="http://www.w3.org/1999/xlink"><defs><clipPath id="clip-1"><rect x="0" y="0" width="250" height="150" fill="none" stroke="none" stroke-width="1"></rect></clipPath><linearGradient x1="93.5722" y1="125" x2="151.2629" y2="25.0769" gradientUnits="userSpaceOnUse" id="color-1"><stop offset="0.17" stop-color="#0054ad"></stop><stop offset="0.5" stop-color="#1cb5d6"></stop><stop offset="1" stop-color="#bdf562"></stop></linearGradient></defs><g clip-path="url(#clip-1)" id="Frame 1" fill="none" fill-rule="nonzero" stroke="none" stroke-width="none" stroke-linecap="butt" stroke-linejoin="miter" stroke-miterlimit="10" stroke-dasharray="" stroke-dashoffset="0" font-family="none" font-weight="none" font-size="none" text-anchor="none" style="mix-blend-mode: normal"><rect x="0" y="0" width="250" height="150" fill="none" stroke="none" stroke-width="1"></rect><g fill="url(#color-1)" stroke="#000000" stroke-width="0"><g><path d="M151.2629,25.0769l47.0754,-0.0769h2.6339c14.6992,0.0964 23.2985,14.9699 24.0278,30c0.3724,7.6745 -2.8885,14.6924 -7.6389,20c4.7504,5.3076 7.6389,12.3165 7.6389,20c0,15.6095 -11.7652,28.5676 -27,30h-69.7513l11.547,-20h59.2043c5.5229,0 10,-4.4772 10,-10c0,-5.5228 -4.4771,-10 -10,-10h-47.6573l11.547,-20h36.1103c5.5229,0 10,-4.4772 10,-10c0,-5.5229 -4.4771,-10 -10,-10h-36.1457l-46.188,80h-23.094z" data-paper-data="{&quot;rotation&quot;:30}"></path><polygon points="45,25 75,76.9615 105,25 125,25 125,50.4448 105,85.0858 105,65 86.547,96.9615 86.5356,96.9615 81.8945,105 68.118,105 63.477,96.9615 63.453,96.9615 45,65 45,125 25,125 25,25"></polygon></g></g></g></svg>